HIERARCHY
ROOT hip
{
	OFFSET 0.000000 0.000000 0.000000 
	CHANNELS 6 Xposition Yposition Zposition Xrotation Zrotation Yrotation
	JOINT abdomen
	{
		OFFSET 0.000000 3.402643 0.000000 
		CHANNELS 3 Xrotation Zrotation Yrotation
		JOINT chest
		{
			OFFSET 0.000000 8.438565 -0.680529 
			CHANNELS 3 Xrotation Zrotation Yrotation
			JOINT neck
			{
				OFFSET 0.000000 10.207942 -0.272212 
				CHANNELS 3 Xrotation Zrotation Yrotation
				JOINT head
				{
					OFFSET 0.000000 3.130431 0.000000 
					CHANNELS 3 Xrotation Zrotation Yrotation
					End Site
					{
						OFFSET 0.000000 3.130435 0.000000 
					}
				}
			}
			JOINT lCollar
			{
				OFFSET 3.470700 6.669187 -0.816635 
				CHANNELS 3 Yrotation Zrotation Xrotation
				JOINT lShldr
				{
					OFFSET 3.198488 0.000000 0.000000 
					CHANNELS 3 Zrotation Yrotation Xrotation
					JOINT lForeArm
					{
						OFFSET 10.139888 0.000000 0.000000 
						CHANNELS 3 Yrotation Zrotation Xrotation
						JOINT lHand
						{
							OFFSET 8.370511 0.000000 0.000000 
							CHANNELS 3 Zrotation Yrotation Xrotation
							End Site
							{
								OFFSET 4.083176 0.000000 0.000000 
							}
						}
					}
				}
			}
			JOINT rCollar
			{
				OFFSET -3.470700 6.669187 -0.816635 
				CHANNELS 3 Yrotation Zrotation Xrotation
				JOINT rShldr
				{
					OFFSET -3.198488 0.000000 0.000000 
					CHANNELS 3 Zrotation Yrotation Xrotation
					JOINT rForeArm
					{
						OFFSET -10.139888 0.000000 0.000000 
						CHANNELS 3 Yrotation Zrotation Xrotation
						JOINT rHand
						{
							OFFSET -8.370511 0.000000 0.000000 
							CHANNELS 3 Zrotation Yrotation Xrotation
							End Site
							{
								OFFSET -4.083176 0.000000 0.000000 
							}
						}
					}
				}
			}
		}
	}
	JOINT lThigh
	{
		OFFSET 5.308129 -1.633274 1.361059 
		CHANNELS 3 Xrotation Zrotation Yrotation
		JOINT lShin
		{
			OFFSET -2.041588 -20.007561 0.000000 
			CHANNELS 3 Xrotation Zrotation Yrotation
			JOINT lFoot
			{
				OFFSET 0.000000 -19.190928 -1.224953 
				CHANNELS 3 Xrotation Yrotation Zrotation
				End Site
				{
					OFFSET 0.000000 -2.449906 4.627600 
				}
			}
		}
	}
	JOINT rThigh
	{
		OFFSET -5.308129 -1.633274 1.361059 
		CHANNELS 3 Xrotation Zrotation Yrotation
		JOINT rShin
		{
			OFFSET 2.041588 -20.007561 0.000000 
			CHANNELS 3 Xrotation Zrotation Yrotation
			JOINT rFoot
			{
				OFFSET 0.000000 -19.190928 -1.224953 
				CHANNELS 3 Xrotation Yrotation Zrotation
				End Site
				{
					OFFSET 0.000000 -2.449906 4.627600 
				}
			}
		}
	}
}
MOTION
Frames: 18
Frame Time: 0.033333
-30.576914 48.907478 -43.232716 0.421095 -4.277229 41.764820 0.000000 0.000000 0.000000 5.986727 0.660441 1.260773 7.755622 2.242242 -5.488036 4.591186 8.816568 -7.509201 -3.153367 7.300955 6.291775 -72.037048 7.884729 7.235232 -40.932266 -6.900271 19.336790 12.875140 5.767813 -3.256308 6.188700 12.070247 5.511903 51.408817 -4.326424 -6.926703 48.729710 9.470387 1.233729 -19.777782 -3.696598 -3.455982 -11.171047 4.960747 1.224651 20.887072 -1.127022 6.279342 -12.699249 0.093387 -0.999028 -13.887741 -1.317474 -0.206834 11.538467 5.399220 31.290342 -5.813959 0.064821 -1.505108 
-30.637632 49.063656 -43.517368 1.165281 -4.227644 38.136257 0.000000 0.000000 0.000000 5.439453 0.000000 0.810547 7.961839 1.541826 -5.860022 4.536098 8.426294 -7.422461 -2.599617 4.713505 5.657166 -67.264847 4.830993 6.238529 -39.339363 -7.379734 21.225782 12.480997 5.024787 -3.337717 5.747296 11.298053 5.088976 53.767597 -5.066645 -7.943614 48.043098 9.148869 0.911378 -19.393074 -4.254748 -3.368592 -10.619846 4.929031 2.158518 19.096325 -2.128089 9.491768 -11.785769 0.059736 -0.491770 -13.526456 -2.927493 -3.976551 11.438597 7.048872 15.919849 -8.039644 0.188112 -2.821041 
-30.655453 49.312946 -43.751812 1.302812 -4.481269 34.917271 0.000000 0.000000 0.000000 5.107430 0.106995 0.751769 8.103217 1.213625 -5.946425 4.707006 8.116212 -7.562664 -2.186082 3.045926 5.299934 -63.594574 1.132147 4.865633 -36.896584 -7.132379 25.068106 11.906011 4.621519 -3.385266 5.501369 11.247606 4.796084 55.145535 -6.503506 -8.191195 47.179806 9.178727 -0.332456 -19.063841 -4.601741 -3.319689 -9.562910 5.405337 3.382131 16.774317 -3.114671 12.696250 -10.662599 -0.054498 0.493040 -12.478549 -3.866327 -7.674829 11.185553 8.491740 2.152922 -9.947806 0.451859 -5.290261 
-30.703310 49.495544 -43.927998 1.782373 -4.304564 31.086527 0.000000 0.000000 0.000000 4.765662 -0.223833 1.465676 7.888557 0.619164 -5.475715 4.932710 8.245002 -7.898924 -1.624363 2.119404 4.954916 -61.812729 -2.657829 3.048233 -35.257061 -5.989622 28.526848 12.135052 4.823843 -3.359207 5.647490 10.191669 4.589147 56.760647 -7.832870 -8.123393 45.733833 9.338586 -0.715841 -18.275127 -4.453533 -3.346827 -8.714097 5.268837 4.108487 14.841787 -3.772112 16.797733 -9.774950 -0.123201 1.246983 -12.797915 -4.977560 -10.142683 13.142193 8.806426 -6.944441 -10.126187 0.545577 -6.414413 
-30.775934 49.553932 -44.016212 2.153486 -3.923018 26.561260 0.000000 0.000000 0.000000 4.433882 -0.652339 2.722748 7.713762 0.117323 -4.402504 4.863824 8.224878 -8.053954 -0.480271 1.561769 4.648816 -61.294106 -5.911178 0.865850 -35.292938 -4.430121 29.491926 12.546560 5.195926 -3.323510 6.631691 9.660126 4.339859 57.474007 -9.806612 -7.986976 44.728951 9.479424 0.211814 -18.478109 -4.606065 -3.316856 -8.239835 5.291188 4.929895 14.465533 -4.334374 21.246750 -9.743056 -0.113982 1.359220 -14.059283 -6.179489 -10.709991 17.025600 8.023220 -9.316858 -8.774796 0.419585 -5.633105 
-30.850042 49.539085 -43.975189 1.996174 -3.620854 22.695786 0.000000 0.000000 0.000000 4.209355 -0.759664 3.283810 7.554281 -0.141772 -3.467219 5.003276 8.079937 -7.703037 0.379138 1.565299 4.436384 -61.455692 -8.267920 -1.126740 -36.246353 -3.218532 27.115498 14.177618 5.401975 -3.272649 7.502698 9.481833 4.127353 58.008030 -11.680553 -7.828260 43.771400 9.505912 2.543123 -18.565409 -4.740027 -3.301882 -7.800420 5.622955 5.731962 15.065351 -4.787216 24.373669 -10.227298 -0.088062 1.027601 -15.152520 -7.507153 -10.529964 21.617575 7.078291 -7.607433 -7.802700 0.324063 -4.943737 
-31.005272 49.533421 -43.902328 1.584551 -3.231189 20.027443 0.000000 0.000000 0.000000 4.160451 -0.681793 2.889747 7.774325 -0.391173 -3.107718 4.868975 7.659676 -7.070189 0.732502 1.252211 4.384645 -61.024414 -10.431783 -2.717661 -37.219933 -3.002876 21.256447 16.429399 4.481150 -3.350290 7.536561 9.030580 4.061977 59.176781 -12.801061 -8.187288 42.641930 9.275068 4.655575 -17.058966 -5.184400 -3.266754 -7.007123 5.669274 6.079028 15.239134 -4.765789 26.810581 -10.311237 -0.027082 0.419420 -15.307695 -9.097406 -10.863958 24.997576 6.268801 -6.778674 -7.749437 0.320313 -4.869663 
-31.238258 49.564377 -43.807690 1.202839 -3.016915 18.227274 0.000000 0.000000 0.000000 3.945428 -0.438412 2.254845 8.227338 -0.189536 -3.183215 4.551859 6.760562 -6.404461 0.193702 1.655961 4.193799 -60.928375 -12.179367 -3.524782 -37.678864 -3.267251 14.992009 17.809103 3.007974 -3.550972 7.069858 9.646849 3.807375 59.539154 -13.955219 -8.899155 42.207569 9.067385 4.875321 -16.128714 -5.888511 -3.186784 -5.826305 5.757075 6.283698 14.224698 -4.571419 28.781399 -9.735125 0.023626 -0.398803 -14.664134 -10.415975 -11.272568 26.492994 5.331748 -8.812259 -6.155445 0.195951 -3.932779 
-31.553633 49.577839 -43.651646 1.173347 -2.870493 16.630270 0.000000 0.000000 0.000000 3.427763 -0.233956 1.763291 8.325502 -0.011068 -3.307285 4.614519 6.303176 -5.994783 -0.373327 2.736497 3.734633 -61.896355 -13.573228 -3.766022 -38.415070 -3.129438 11.416273 17.877012 2.239416 -3.656147 6.568208 10.111187 3.308802 60.228565 -15.064476 -9.808496 42.095028 8.821552 3.997384 -16.187729 -6.010422 -3.171107 -5.435578 6.088270 6.606635 14.126414 -4.521610 30.190836 -9.465746 0.080415 -0.986036 -13.424267 -11.265175 -11.909031 25.756430 4.577582 -13.088773 -5.717438 0.193289 -4.024661 
-31.975471 49.548901 -43.441864 1.270927 -2.684887 14.920534 0.000000 0.000000 0.000000 2.841798 -0.039014 1.404307 8.237454 0.071352 -3.241822 4.950707 5.993747 -5.577203 -0.561722 3.200325 3.208987 -61.734848 -14.639377 -3.064896 -39.254555 -3.591345 9.975779 17.893162 1.378814 -3.779089 6.237970 10.233627 2.763079 61.324390 -16.194071 -10.748715 42.199814 8.491631 3.253451 -16.400425 -5.644353 -3.214814 -5.184876 6.619833 7.134766 14.263367 -4.678216 31.518276 -9.301115 0.162124 -1.884341 -11.460304 -11.604228 -12.278896 23.403522 4.021114 -15.691299 -6.199862 0.186776 -3.393579 
-32.481598 49.513287 -43.185528 1.231374 -2.196759 13.438782 0.000000 0.000000 0.000000 2.392579 -0.039028 1.013988 8.289519 0.070003 -3.291645 5.394467 5.664989 -5.160264 -0.870072 3.250836 2.796154 -61.301243 -15.135052 -1.922229 -40.276203 -3.937482 11.506861 18.292063 1.017225 -3.841974 5.858150 10.434999 2.349316 62.114567 -17.337641 -11.526447 42.365459 8.268487 2.278262 -16.399778 -5.135068 -3.277865 -4.147376 6.897536 7.594305 13.411422 -4.811462 32.734371 -8.693681 0.260560 -3.007371 -7.292906 -11.742317 -12.642953 17.545275 3.874828 -16.446318 -3.554994 -0.122305 2.094691 
-33.094090 49.450493 -42.892689 1.289462 -1.425420 12.077060 0.000000 0.000000 0.000000 1.904314 -0.244006 0.665674 8.341508 -0.215934 -3.314196 5.668994 5.715201 -4.881846 -1.347667 2.957556 2.347690 -60.874531 -15.074212 -0.745987 -41.518688 -4.037659 14.510783 18.065931 1.421241 -3.766743 5.571800 10.447968 1.915179 62.830521 -18.280716 -11.955099 42.098484 8.194200 1.695334 -16.642767 -4.497081 -3.359883 -3.328740 6.987943 7.857431 12.847612 -4.853895 34.153503 -8.044843 0.296304 -4.144515 -2.265974 -11.636477 -13.068269 9.470599 3.921958 -14.469728 -1.988975 -0.102499 5.310136 
-33.800045 49.388203 -42.549892 1.220749 -0.497934 10.379929 0.000000 0.000000 0.000000 1.523523 -0.605255 0.520910 8.346713 -0.591526 -3.103501 6.336330 5.727964 -4.493817 -1.303695 2.499358 1.983228 -60.394287 -15.283817 1.546418 -41.705204 -5.818377 11.551634 22.030611 -0.889265 -4.315408 5.425268 10.291950 1.580621 63.672649 -18.916548 -12.031234 41.356491 8.215298 1.719887 -16.847574 -4.238195 -3.385495 -2.302667 6.963644 8.075926 12.298796 -4.791316 35.903824 -7.289825 0.336148 -5.219980 1.357037 -11.533051 -13.218209 3.561558 4.181724 -11.790254 -1.365182 -0.101699 7.009591 
-34.537724 49.369453 -42.181419 1.132816 0.146456 7.961905 0.000000 0.000000 0.000000 1.103601 -0.712758 0.796696 8.305147 -0.646797 -2.436748 6.719949 5.465813 -4.016552 -0.798509 2.567268 1.615765 -61.492611 -14.833890 3.125536 -42.070145 -6.464035 10.660030 24.042713 -2.053570 -4.556730 6.084392 10.516875 1.181488 64.250336 -19.720268 -12.200025 40.683857 8.193996 1.989753 -15.500826 -4.510134 -3.370842 -0.235142 7.007195 8.301234 10.279860 -4.539528 37.946712 -6.103056 0.341111 -6.340716 2.360719 -11.126245 -12.527138 1.931949 3.908042 -9.982681 -1.213394 -0.099505 7.950340 
-35.325745 49.443951 -41.820377 1.093751 0.087875 5.157942 0.000000 0.000000 0.000000 0.722663 -0.253886 1.305348 7.981864 -0.194602 -1.356798 7.250794 4.959562 -3.358718 0.189422 2.890580 1.255213 -63.570557 -13.570669 3.344710 -42.943680 -5.141227 15.999676 19.682058 -0.659431 -4.143927 6.994317 11.701876 0.715677 63.764420 -20.390652 -11.681638 40.256264 8.449689 2.187750 -15.130792 -4.766814 -3.337914 1.638855 7.583903 8.761985 8.305558 -4.084732 39.833588 -4.862026 0.302269 -6.790864 2.009305 -9.926103 -11.047040 1.931143 3.467381 -8.324425 -1.961732 -0.123225 7.035417 
-36.063816 49.536819 -41.460972 0.976614 -0.585852 2.343429 0.000000 0.000000 0.000000 0.546939 0.878866 1.600335 7.435196 0.502003 -0.208274 8.456630 4.238267 -2.608482 0.853142 2.927061 1.070126 -66.326309 -11.393335 2.647314 -44.235222 -3.788829 18.368845 16.655113 -0.241725 -3.967249 7.539836 13.278278 0.359561 62.364571 -20.743050 -10.662534 40.524025 8.754788 3.344778 -15.063412 -5.280842 -3.281523 2.799840 8.725871 9.608387 7.662490 -3.662117 40.983456 -4.169048 0.258073 -6.975486 2.040473 -8.495333 -10.182186 1.307011 3.789651 -6.631758 -2.048082 -0.111026 5.801832 
-36.789810 49.482330 -41.129505 1.543319 -1.220261 0.347785 0.000000 0.000000 0.000000 -0.107481 1.894528 1.197621 6.698232 1.311566 0.351222 9.141533 3.329932 -1.657687 0.895799 3.116066 0.442283 -70.752586 -8.176459 1.055295 -46.284321 -2.425168 16.221123 18.181000 -0.489584 -4.057417 7.487107 14.373284 -0.395224 61.170532 -21.025606 -9.818763 41.512535 8.841759 5.144554 -14.400436 -5.682631 -3.247125 2.301475 10.010859 10.211862 9.065948 -3.195525 40.869144 -4.382717 0.314074 -8.079162 1.286382 -7.442965 -9.953473 1.532767 4.713523 -5.515400 -2.420178 -0.091982 4.047885 
-37.542099 49.398392 -40.868755 1.875604 -1.454299 -0.506836 0.000000 0.000000 0.000000 -0.469129 2.304610 -0.009084 6.401389 2.114163 -0.000599 9.356179 2.490020 -0.582139 0.308342 3.638469 0.140259 -76.101875 -4.631539 -1.081161 -47.834515 -0.655738 14.599094 18.784121 -0.825845 -4.129075 6.494369 15.210467 -0.758598 60.024147 -20.522913 -9.001204 42.228703 8.986631 6.061755 -14.079671 -5.541711 -3.270648 0.497394 11.123210 10.283588 12.798836 -2.466716 39.962608 -5.294447 0.404129 -8.604311 -0.225083 -6.764361 -9.643599 3.951979 5.159841 -4.933398 -3.879684 -0.111373 2.598454 
